<?xml version="1.0" encoding="UTF-8" standalone="no"?>
<svg
   xmlns:dc="http://purl.org/dc/elements/1.1/"
   xmlns:cc="http://creativecommons.org/ns#"
   xmlns:rdf="http://www.w3.org/1999/02/22-rdf-syntax-ns#"
   xmlns:svg="http://www.w3.org/2000/svg"
   xmlns="http://www.w3.org/2000/svg"
   xmlns:xlink="http://www.w3.org/1999/xlink"
   xmlns:sodipodi="http://sodipodi.sourceforge.net/DTD/sodipodi-0.dtd"
   xmlns:inkscape="http://www.inkscape.org/namespaces/inkscape"
   id="svg223"
   version="1.1"
   viewBox="0 0 264.58335 143.28935"
   height="541.56604"
   width="1000.0001"
   inkscape:version="0.48.5 r10040"
   sodipodi:docname="Velocity.svg">
  <sodipodi:namedview
     pagecolor="#ffffff"
     bordercolor="#666666"
     borderopacity="1"
     objecttolerance="10"
     gridtolerance="10"
     guidetolerance="10"
     inkscape:pageopacity="0"
     inkscape:pageshadow="2"
     inkscape:window-width="1920"
     inkscape:window-height="1028"
     id="namedview36"
     showgrid="false"
     fit-margin-bottom="0.2"
     fit-margin-top="0"
     fit-margin-left="0"
     fit-margin-right="0"
     inkscape:zoom="0.41872073"
     inkscape:cx="926.02574"
     inkscape:cy="10.057193"
     inkscape:window-x="-8"
     inkscape:window-y="-8"
     inkscape:window-maximized="1"
     inkscape:current-layer="svg223">
    <inkscape:grid
       type="xygrid"
       id="grid3044"
       empspacing="5"
       visible="true"
       enabled="true"
       snapvisiblegridlinesonly="true"
       originx="1.872439e-005px"
       originy="-0.29998339px" />
  </sodipodi:namedview>
  <defs
     id="defs217">
    <clipPath
       id="clipPath10242"
       clipPathUnits="userSpaceOnUse">
      <path
         id="path10244"
         d="m 86.84,266.207 h 89.107 v 59.405 H 86.84 z"
         inkscape:connector-curvature="0" />
    </clipPath>
    <linearGradient
       gradientTransform="matrix(0.57052975,0,0,0.57052975,-220.47094,-249.60415)"
       y2="553.88794"
       x2="689.52301"
       y1="519.54272"
       x1="495.5737"
       gradientUnits="userSpaceOnUse"
       id="linearGradient3051"
       xlink:href="#linearGradient11715" />
    <linearGradient
       id="linearGradient11715">
      <stop
         style="stop-color:#959595"
         offset="0"
         id="stop11717" />
      <stop
         id="stop11723"
         offset="0.28669125"
         style="stop-color:#bfbfbf" />
      <stop
         style="stop-color:#868688"
         offset="1"
         id="stop11719" />
    </linearGradient>
    <linearGradient
       gradientTransform="matrix(0.57052975,0,0,0.57052975,-220.47094,-249.60415)"
       y2="496.8143"
       x2="770.84027"
       y1="496.8143"
       x1="464.76407"
       gradientUnits="userSpaceOnUse"
       id="linearGradient3048"
       xlink:href="#linearGradient11705" />
    <linearGradient
       id="linearGradient11705">
      <stop
         style="stop-color:#898b8f"
         offset="0"
         id="stop11707" />
      <stop
         id="stop11713"
         offset="0.49774325"
         style="stop-color:#bebcba" />
      <stop
         style="stop-color:#646466"
         offset="1"
         id="stop11709" />
    </linearGradient>
    <linearGradient
       gradientTransform="matrix(0.57052975,0,0,0.57052975,-220.47094,-249.60415)"
       y2="551.86761"
       x2="618.81195"
       y1="605.58215"
       x1="618.09766"
       gradientUnits="userSpaceOnUse"
       id="linearGradient3045"
       xlink:href="#linearGradient11729" />
    <linearGradient
       id="linearGradient11729">
      <stop
         id="stop11731"
         offset="0"
         style="stop-color:#ffffff" />
      <stop
         id="stop11735"
         offset="1"
         style="stop-color:#a4a4a4" />
    </linearGradient>
    <radialGradient
       r="29.427076"
       fy="509.06366"
       fx="620.11078"
       cy="509.06366"
       cx="620.11078"
       gradientTransform="matrix(0.62318314,0.04154578,-0.03728613,0.55928731,-234.1409,-269.60299)"
       gradientUnits="userSpaceOnUse"
       id="radialGradient3042"
       xlink:href="#linearGradient11772" />
    <linearGradient
       id="linearGradient11772">
      <stop
         style="stop-color:#c7c7c9"
         offset="0"
         id="stop11774" />
      <stop
         style="stop-color:#919093"
         offset="1"
         id="stop11776" />
    </linearGradient>
    <radialGradient
       inkscape:collect="always"
       xlink:href="#linearGradient11772"
       id="radialGradient3080"
       gradientUnits="userSpaceOnUse"
       gradientTransform="matrix(0.62318314,0.04154578,-0.03728613,0.55928731,-256.86671,-175.69728)"
       cx="620.11078"
       cy="509.06366"
       fx="620.11078"
       fy="509.06366"
       r="29.427076" />
    <linearGradient
       inkscape:collect="always"
       xlink:href="#linearGradient11729"
       id="linearGradient3083"
       gradientUnits="userSpaceOnUse"
       gradientTransform="matrix(0.57052975,0,0,0.57052975,-243.19675,-155.69844)"
       x1="618.09766"
       y1="605.58215"
       x2="618.81195"
       y2="551.86761" />
    <linearGradient
       inkscape:collect="always"
       xlink:href="#linearGradient11705"
       id="linearGradient3086"
       gradientUnits="userSpaceOnUse"
       gradientTransform="matrix(0.57052975,0,0,0.57052975,-243.19675,-155.69844)"
       x1="464.76407"
       y1="496.8143"
       x2="770.84027"
       y2="496.8143" />
    <linearGradient
       inkscape:collect="always"
       xlink:href="#linearGradient11715"
       id="linearGradient3089"
       gradientUnits="userSpaceOnUse"
       gradientTransform="matrix(0.57052975,0,0,0.57052975,-243.19675,-155.69844)"
       x1="495.5737"
       y1="519.54272"
       x2="689.52301"
       y2="553.88794" />
  </defs>
  <metadata
     id="metadata220">
    <rdf:RDF>
      <cc:Work
         rdf:about="">
        <dc:format>image/svg+xml</dc:format>
        <dc:type
           rdf:resource="http://purl.org/dc/dcmitype/StillImage" />
        <dc:title />
      </cc:Work>
    </rdf:RDF>
  </metadata>
  <g
     transform="translate(22.725821,-93.905588)"
     id="layer1">
    <g
       transform="matrix(2.3238558,0,0,-2.3238558,-197.69465,880.38158)"
       id="g10238">
      <g
         clip-path="url(#clipPath10242)"
         id="g10240">
        <g
           transform="translate(162.8703,279.2624)"
           id="g10246">
          <path
             inkscape:connector-curvature="0"
             id="path10248"
             d="m 0,0 -3.1,3.606 h 1.023 L 0.436,0.623 2.971,3.606 H 3.952 L 0.851,0.009 v -2.37 H 0 z m -9.505,2.984 h -2.502 V 3.606 H -6.15 V 2.984 h -2.503 v -5.345 h -0.852 z m -7.234,0.622 h 0.841 v -5.967 h -0.841 z m -10.506,-3 v 0.017 c 0,1.688 1.576,3.085 3.771,3.085 1.352,0 2.162,-0.383 2.907,-0.946 l -0.575,-0.494 c -0.628,0.477 -1.331,0.819 -2.344,0.819 -1.651,0 -2.885,-1.075 -2.885,-2.448 V 0.623 c 0,-1.381 1.246,-2.463 2.885,-2.463 1.023,0 1.695,0.315 2.408,0.86 l 0.554,-0.435 c -0.777,-0.631 -1.63,-1.049 -2.983,-1.049 -2.151,0 -3.738,1.356 -3.738,3.07 m -4.562,0 v 0.017 c 0,1.355 -1.237,2.464 -2.94,2.464 -1.705,0 -2.92,-1.092 -2.92,-2.448 V 0.623 c 0,-1.356 1.237,-2.463 2.941,-2.463 1.704,0 2.919,1.091 2.919,2.446 m -6.733,0 v 0.017 c 0,1.645 1.545,3.085 3.814,3.085 2.269,0 3.791,-1.424 3.791,-3.069 0.012,-0.009 0.012,-0.009 0,-0.016 0,-1.646 -1.544,-3.087 -3.812,-3.087 -2.27,0 -3.793,1.425 -3.793,3.07 m -8.077,3 h 0.842 v -5.344 h 4.197 v -0.623 h -5.039 z m -9.376,0 h 5.39 V 2.992 h -4.549 V 0.955 h 4.069 V 0.342 h -4.069 v -2.089 h 4.603 v -0.614 h -5.444 z m -10.869,0 h 0.937 l 2.653,-5.14 2.664,5.14 h 0.904 l -3.206,-6.009 h -0.745 z" />
        </g>
      </g>
    </g>
    <ellipse
       sodipodi:ry="29.33412"
       sodipodi:rx="29.207851"
       sodipodi:cy="513.54541"
       sodipodi:cx="618.72675"
       d="m 647.9346,513.54541 c 0,16.20079 -13.0768,29.33412 -29.20785,29.33412 -16.13106,0 -29.20786,-13.13333 -29.20786,-29.33412 0,-16.20079 13.0768,-29.33412 29.20786,-29.33412 16.13105,0 29.20785,13.13333 29.20785,29.33412 z"
       transform="matrix(0.57052975,0,0,0.57052975,-243.19675,-155.69844)"
       ry="29.33412"
       rx="29.207851"
       cy="513.54541"
       cx="618.72675"
       id="path11737"
       style="fill:#ffffff" />
    <path
       inkscape:connector-curvature="0"
       style="fill:url(#linearGradient3089);fill-rule:evenodd"
       d="M 109.85389,206.82122 -22.725662,93.905588 l 9.823141,0 122.756411,65.252872 122.18048,-65.252872 9.82315,0 z"
       id="path11695"
       sodipodi:nodetypes="ccccccc" />
    <path
       inkscape:connector-curvature="0"
       id="path11691"
       d="M 109.85389,201.22997 -22.725662,93.905588 l 9.823141,0 122.756411,65.252872 122.18048,-65.252872 9.82315,0 z"
       style="fill:url(#linearGradient3086);fill-rule:evenodd"
       sodipodi:nodetypes="ccccccc" />
    <path
       inkscape:connector-curvature="0"
       style="fill:url(#linearGradient3083);fill-rule:evenodd"
       d="M 109.85389,201.22997 -22.725822,93.905588 l 0,0 132.579712,105.133042 132.00347,-105.133042 0,0 z"
       id="path11725"
       sodipodi:nodetypes="ccccccc" />
    <path
       inkscape:connector-curvature="0"
       id="path11764"
       d="m 105.51859,153.03154 c -9.626383,-2.30151 -15.198073,-13.73342 -11.070843,-22.71497 3.710444,-7.0875 8.886373,-9.70857 15.574093,-9.73293 5.67454,0.0309 10.52865,2.52282 13.64035,7.00238 2.37058,3.41272 3.20036,6.32557 2.9404,10.32211 -0.26234,4.03298 -1.55265,7.30293 -3.89419,9.86865 -4.52323,4.95625 -10.63003,6.82306 -17.18966,5.25476 z"
       style="fill:url(#radialGradient3080)"
       sodipodi:nodetypes="cccssscc" />
  </g>
  <path
     style="fill:#ffffff;stroke:none"
     d="m 134.52234,36.624893 0.21287,-0.248538 0.51781,-0.14794 0.58685,0.09468 0.12658,0.136104 0.32794,0.04734 0.48329,0.295878 0.5063,0.189363 0.0863,0.08876 -0.27616,0.106516 -0.6674,0.0059 0.17261,-0.147939 c 0,0 -0.0518,-0.07693 -0.0806,-0.08285 -0.0288,-0.0059 -0.30493,-0.06509 -0.30493,-0.06509 l -0.0691,-0.195281 -0.33945,-0.03551 -0.40274,-0.136104 -0.13808,-0.01775 0.11507,-0.05326 -0.23014,-0.05918 -0.19562,0.09468 -0.21863,0.08876 -0.10356,0.07101 z"
     id="path3036"
     inkscape:connector-curvature="0" />
  <path
     style="fill:#ffffff;stroke:none"
     d="m 136.41521,37.548035 0.44877,0.100599 0.0115,0.05326 -0.27041,0.09468 -0.2474,-0.106516 -0.0345,-0.08285 z"
     id="path3038"
     inkscape:connector-curvature="0" />
  <path
     style="fill:#ffffff;stroke:none"
     d="m 137.79028,37.630881 -0.31068,0.04734 -0.16685,-0.17161 0.55808,0.02367 -0.12657,-0.142022 0,-0.100599 -0.15535,-0.100599 0.20137,0 0.21288,0.04734 0.26466,-0.06509 0.40849,0.183445 0.24165,0.159775 0.35671,0.08285 0.36247,-0.02959 -0.0403,0.112434 -0.11507,0.02367 -0.27616,0.04142 0.046,-0.153857 -0.32795,-0.05918 -0.069,0.153856 -0.20712,-0.124268 -0.15535,0.02959 -0.13233,0.05918 -0.0575,-0.05326 -0.069,0.136104 -0.0863,0.124269 -0.13233,-0.213032 z"
     id="path3040"
     inkscape:connector-curvature="0" />
  <path
     style="fill:#ffffff;stroke:none"
     d="m 138.60655,27.663872 0.15604,0.120155 0.4085,0.437901 -0.35096,-0.04734 -0.32219,-0.100599 -0.72494,-0.355054 -0.63287,-0.278127 -0.33946,-0.289961 c 0.72389,0.156664 1.22574,0.339449 1.80588,0.513025 z"
     id="path3042"
     inkscape:connector-curvature="0"
     sodipodi:nodetypes="ccccccccc" />
  <path
     style="fill:#ffffff;fill-opacity:1;fill-rule:evenodd;stroke:none"
     d="m 130.61589,26.547123 -0.45471,0.213092 0.0232,0.08301 0.51765,-0.106546 -0.0575,0.05327 0.13822,0.02942 -0.23609,0.106546 0.52367,-0.02354 -0.53511,0.04739 0.007,0.08363 0.18279,0.02292 0.0401,0.05296 0.35685,0 0.31649,-0.06504 0.45441,0.02973 0.20718,-0.118316 -0.31077,-0.04739 0,-0.1242 0.1843,-0.14805 -0.3454,0.02354 -0.0229,0.14805 -0.14394,-0.106546 -0.27614,-0.0059 -0.21291,-0.118316 -0.35654,-0.02973 z m -0.0735,0.48627 -0.007,-9.28e-4 0.008,0.0056 -6.1e-4,-0.0046 z m 6.1e-4,0.0046 0.004,0.04181 -0.20116,-0.02354 -0.2936,-0.07124 -0.31077,0.09478 -0.0172,-0.171588 -0.39689,0.08858 -0.49477,0.05947 -0.25897,-0.100661 -0.43725,-0.09478 -0.89166,0.26048 -0.33968,0.224861 -0.28759,0.01766 -0.28186,0.177473 0.0575,0.03562 -0.27042,0.11243 -0.75374,0.325523 -0.35083,0.325213 0.0976,0.05947 -0.23579,0.171589 -1.05849,0.52065 0.3969,-0.1242 0.46586,-0.230747 0.71369,-0.301983 0.28758,-0.207207 0.0632,0.08301 0.56974,-0.218977 0.12076,0.08301 0.20718,0.05916 0.17255,0.284019 -0.12678,0.230746 0.0289,0.118316 -0.0346,0.159819 0.19574,0.07093 -0.10359,0.153934 0.0229,0.171589 0.0232,0.313443 0.16111,0.08301 0.0172,0.0827 -0.0575,-0.05327 -0.23579,-0.112431 -0.12678,0.01796 0.19574,0.331407 0.20146,0.153625 0.15538,-0.01765 -0.0175,-0.106546 -0.13792,-0.118315 0.0229,-0.08858 0.0518,-0.05327 0.14394,0.159509 0.0747,0.153934 -0.0861,0.27225 -0.0518,-0.13597 -0.25325,-0.05916 -0.0979,0.307559 -0.52367,0.840288 -0.11504,0.38468 -0.14364,0.14805 0.0632,0.159509 -0.0922,0.183668 0.069,0.224861 0.0635,0.189243 -0.0461,0.153934 0.14364,0.307559 0.006,0.159819 0.37371,0.1242 0.13822,0.171898 0.0114,0.05327 0.17255,0.810555 0.13249,0.171588 0.16111,0.218977 -0.11503,0.159819 -0.14967,0.0059 0.24724,0.27225 0.24753,0.07093 0.0632,0.195438 -0.0286,0.15951 0.0861,0.213091 c 0,0 0.28773,0.236843 0.3165,0.254595 0.0288,0.01775 0.0289,0.177474 0.0289,0.177474 l 0.1608,-0.01765 0.0289,-0.189553 -0.17827,-0.171588 -0.10931,-0.02942 0.0172,-0.195438 -0.12075,-0.414104 -0.12678,-0.159819 -0.18399,-0.38468 -0.20718,-0.354947 0.0575,-0.432068 0.31649,0.13597 0.10359,0.50919 0.184,0.284019 0.1325,0.03531 0.006,0.112431 0.16111,0.230747 0.0864,0.05327 -0.0403,0.201321 0.25898,0.183358 0.53481,0.621312 0,0.189553 0.12678,0.159819 -0.10931,0.183358 0.0918,0.05327 -0.15508,0.07681 0.12648,0.236631 0.32221,0.218977 c 0,0 0.1667,0.171588 0.18972,0.171588 0.023,0 0.29932,0.0415 0.29932,0.0415 l 0.33938,0.230747 0.63871,0.242826 0.43153,0.201012 0.41406,-0.159819 0.27042,0.03562 0.29932,0.153934 0.46586,0.461492 0.35112,0.02942 0.54656,0.189552 0.24152,-0.01765 -0.0229,0.08858 0.52367,0.502996 -0.0635,0.319638 0.19002,0.130085 0.0575,-0.03531 -0.0461,-0.12451 0.11504,0.06504 0.0346,0.08889 0.27042,0.165703 0.0114,0.171589 0.23579,0.03562 0.32221,0.08858 0.11504,0.159819 0.0807,-0.118314 0.0403,0.165703 0.25868,-0.05916 -0.13792,-0.165704 0.10359,-0.0415 0.10931,-0.206897 0.21862,-0.0062 0.19544,0.177783 -0.0575,0.153625 0.32222,0.420298 -0.0229,0.06504 0.0403,0.1242 -0.0635,0.05327 0.0575,0.443837 0.0578,0.100662 -0.17285,0.39645 c 0,0 -0.20133,-0.01769 -0.22435,-0.01177 -0.023,0.0059 0.0346,0.242517 0.0346,0.242517 l -0.19001,-0.01765 0.0575,0.171588 -0.29902,0.0827 -0.0979,0.337291 -0.12076,0.159819 -0.0979,0.402336 0.22435,0.195437 0.11503,-0.159819 0,0.218976 -0.31619,0.266365 -0.12106,0.218977 0.12678,0.295789 c 0,0 -0.0577,0.08294 -0.0807,0.09478 -0.023,0.01183 0.23579,0.153624 0.23579,0.153624 l 0.24181,0.236941 0.50621,1.106344 0.2936,0.574233 0.0518,0.431759 0.35654,0.301982 0.75946,0.467378 0.0979,0.118316 0.20718,0.195438 0,0.573923 -0.075,0.645161 -0.14936,0.135969 0.0343,0.124201 -0.0403,0.148048 -0.0229,0.301675 -0.28186,0.721972 -0.14395,0.224861 0.0232,0.272251 -0.14966,0.11243 -0.0172,0.550384 -0.10359,0.118315 0.0172,0.153935 -0.0864,0.100661 -0.0172,0.13597 -0.33938,0.479456 -0.0632,0.02354 -0.0518,0.136279 -0.0693,-0.0062 -0.0286,0.08301 0.0286,0.153935 -0.0804,0.218976 -0.15539,0.224862 -0.0747,0.289904 -0.15538,0.431759 0.12075,0.118624 -0.14966,0 -0.1322,0.349063 -0.24753,0.171588 0.19001,0.153935 -0.0864,0.0827 -0.10359,0.165704 -0.0632,0.230746 -0.0918,0.355256 0.0918,0.141856 0.0979,0.171588 0.0807,0.08301 0.069,0.118317 0.20718,0.07093 0.16111,0.106546 0.31047,-0.05916 0.37401,-0.07681 -0.17255,0 -0.23579,-0.213092 -0.12678,-0.201321 0.0979,0.01765 0.0461,-0.189244 0.16111,-0.236631 0.20146,-0.118314 0.31047,-0.201323 0.14394,-0.141854 0.0922,-0.130396 -0.2129,-0.09447 0.18971,-0.313752 0.19002,0.0059 0.18399,-0.189243 0.25898,-0.248711 -0.0807,-0.07681 0.0864,-0.03562 0.14967,0.09478 0.069,-0.195438 -0.20146,0.01796 -0.0172,-0.14805 0.069,-0.177473 0.22435,0.06504 0.30505,-0.0415 0.0114,-0.159819 0.17827,-0.112431 0.0117,-0.165703 0.31047,-0.0059 0.60437,-0.171589 0.22435,-0.206897 0.18971,-0.142164 -0.13219,-0.189243 0.10359,-0.13628 -0.19002,-0.165704 0.0632,-0.183358 0.0175,0.1242 0.25296,0.05916 0.27042,0.04739 0.23006,-0.07681 0.23037,-0.189553 0.24723,-0.236631 0.1036,-0.189242 0.40863,-0.266365 0.50049,-0.562153 0.24151,-0.272251 0.13822,-0.49711 0.22435,-0.248402 0.41436,-0.289904 0.14364,0 0.19574,-0.177782 0.16111,-0.05327 0.36828,-0.01177 0.0286,-0.130085 0.19574,-0.118314 0.0804,-0.159819 0.22435,-0.372911 0.25898,-0.538306 0.20145,-0.426184 0.10932,-0.591887 0.0575,-0.331407 0.22435,-0.248401 0.14394,-0.402334 0.41978,-0.491227 0.17285,-0.544499 -0.006,-0.769051 -0.33366,-0.06535 -0.15538,-0.331406 -0.36799,-0.307559 -0.2129,0.02354 -0.24753,-0.118316 -0.25898,0.03562 -0.17255,-0.349062 -0.53512,-0.230746 -0.25867,0.236631 0.0747,-0.325523 -0.27042,-0.148049 -0.0632,-0.443839 -0.14394,-0.118314 -0.18399,-0.615427 -0.46616,-0.431759 -0.3451,-0.09478 -0.27042,0.01765 -0.2647,-0.04739 -0.2647,-0.206898 -0.12075,-0.189552 -0.41436,-0.384681 -0.25296,0 0.0229,-0.201013 -0.0286,-0.07124 -0.32221,-0.106237 -0.17255,-0.130394 0.18971,-0.0827 -0.43725,0.01765 -0.23578,0.159819 -0.2647,-0.07093 -0.11504,-0.106545 -0.51223,0.05327 -0.10359,-0.207206 -0.18972,-0.07681 -0.10931,-0.0059 -0.069,-0.183667 -0.0979,-0.02942 0.0114,0.153624 0.069,0.01208 0.0114,0.05916 -0.30475,0.08858 -0.11503,0.10066 0.10931,0.272251 0.0575,0.165704 -0.15539,0.06504 -0.16111,-0.218976 0.12648,-0.266365 -0.10931,-0.206897 0.25897,-0.195437 -0.13792,-0.118316 -0.10359,0.05916 -0.35112,0.295789 -0.30475,0.01796 -0.0232,0.100662 -0.0979,-0.07124 -0.10359,0.07124 -0.14365,0.455607 -0.10931,-0.0415 -0.075,0.171587 -0.14936,0.04151 0.0918,0.242515 -0.27042,-0.289904 -0.20688,-0.135969 -0.26469,-0.05947 -0.23037,0.07124 -0.35082,0.183358 -0.0632,-0.106546 -0.17827,0.03562 -0.0404,-0.165704 -0.17255,-0.09477 -0.19001,-0.278136 -0.0518,-0.148048 0.0518,-0.550074 0.0921,-0.224863 0.006,-0.254594 -0.0807,-0.09478 -0.33366,-0.224861 -0.25867,0.0059 -0.50079,0.05947 -0.12648,-0.07124 -0.10359,0.04739 -0.18971,-0.02942 0.0861,-0.07712 0.069,-0.195127 0,-0.112431 0.0578,-0.296099 -0.0693,-0.05916 0.0632,-0.100352 0,0.106237 0.0922,0.05327 0.075,-0.307558 0.006,-0.230747 0.0976,-0.11243 0.075,-0.159819 -0.0575,-0.124201 -0.0807,0.05327 -0.25295,-0.03562 -0.53512,0.112431 -0.0693,0.148049 -0.0114,0.212782 -0.0861,0.153934 -0.12678,0.118316 -0.0747,0.12451 -0.16683,-0.07124 -0.6098,0.183668 -0.0864,-0.07124 -0.22435,-0.13597 -0.12647,-0.06504 -0.16683,-0.284019 -0.16683,-0.278135 -0.10359,-0.361141 0.0575,-0.497111 0.12648,-0.28402 0.0172,-0.171588 -0.0461,-0.289904 0.075,-0.213091 0.25898,-0.207208 0.33938,-0.189243 0.3451,-0.118315 0.32794,0.02942 0.12677,-0.04708 0.23007,0.165704 0.31047,-0.0059 0.10359,0.05916 0.0922,-0.02973 -0.19574,-0.130085 0.10962,-0.07712 -0.32222,-0.06504 0.0518,-0.09478 0.17255,0.09478 0.11503,-0.05327 0.23007,0.01796 0.0172,-0.124511 0.0979,0.08889 0.0979,-0.01765 0.3451,0.03531 0.16683,0.177474 0.25898,-0.112431 0.13822,0 0.25867,0.242826 0.0232,0.206897 0.0172,0.159819 0.069,0.177474 0.10359,0.09477 0.0807,0.159819 0.1322,0.09478 0.0693,0.159819 0.10329,0.04708 0.10359,-0.189244 0.0575,-0.260479 -0.23006,-0.485033 -0.24151,-0.467687 -0.006,-0.206897 0.0861,-0.189553 0.20146,-0.177473 0.16683,-0.171589 0.10931,-0.118315 0.19574,-0.06504 0.14936,-0.153934 0.16111,-0.01177 0.0575,-0.03562 -0.0747,-0.07681 0.12648,-0.07712 0.0346,-0.08858 -0.17827,-0.02385 0.11503,-0.09447 -0.0632,-0.08889 -0.0635,-0.09478 -0.0172,-0.171589 -0.0979,-0.165704 -0.0172,-0.159818 0.0289,0.118625 0.11504,0.100351 0.0575,0.08301 -0.0232,0.07093 0.0175,0.118316 0.11504,-0.213092 0.0343,-0.130085 -0.10359,-0.148049 0.0289,0.0062 0.0747,0.05916 0.12677,-0.153934 0.006,-0.112431 -0.0172,-0.08889 0.14936,-0.04739 0.30505,-0.07093 -0.39689,0.0059 0.10931,-0.05327 0.17255,-0.01766 0.27614,-0.05916 0.17827,-0.03562 -0.13792,-0.02942 -0.0518,-0.07093 -0.0922,-0.01208 0.0922,-0.09447 -0.075,-0.01796 0.0807,-0.212783 0.14936,-0.01208 0.0289,-0.07681 0.0346,-0.02385 0.29331,-0.100351 -0.0747,-0.07712 0.20687,0 0.2647,-0.14774 -0.069,0.07093 0.27614,0.02942 -0.16682,0.02973 -0.17828,0.112431 -0.0518,0.118315 0.14966,0.130086 0.15509,-0.05916 0.0635,-0.1242 0.16683,-0.07681 0.31047,-0.106546 -0.006,-0.04739 0.10932,-0.07093 0.0346,-0.07712 -0.15539,-0.01177 -0.006,-0.09478 -0.0518,-0.05916 -0.0575,0.165704 0.0229,0.08301 -0.14364,0.0059 -0.0346,-0.0059 -0.21862,-0.01177 -0.0641,-0.0604 -0.14877,-0.02849 -0.10359,-0.130086 c 0,0 -0.0459,-0.03558 -0.069,-0.0415 -0.023,-0.0059 0,-0.13597 0,-0.13597 l -0.14966,0.02942 -0.13792,-0.08858 0.16683,0.02942 0.1322,-0.130085 -0.0114,-0.05916 -0.069,-0.04739 -0.19573,-0.02973 -0.48905,0.183668 -0.21862,0.278135 -0.0861,0 0.23579,-0.384681 0.22435,-0.07712 0.10359,-0.177473 0.66731,-0.02942 0.0114,0.118316 -0.16683,-0.03562 -0.17255,0.01766 0.37401,0.148049 0.19574,-0.01177 -0.21291,-0.07712 -0.0175,-0.130085 0.3454,-0.03562 0.16683,-0.183359 0.15538,-0.02942 0.12076,-0.106546 0.0229,0.09447 -0.0518,0.05327 0.0403,0.337292 -0.0864,0.153934 0.0693,0.05327 0,0.14805 0.68448,0.07681 -0.11504,0.08889 0.14967,0.0059 0.0461,-0.05916 0.0861,-0.05916 0.0575,0.100661 0.0289,-0.02973 0.069,0.07681 0.10359,0 -0.0518,-0.201012 -0.0632,0.07681 -0.0346,-0.165704 -0.0861,0.112431 0,-0.159819 -0.13822,-0.0827 -0.0918,-0.13628 -0.0635,0.05327 -0.23579,-0.04119 -0.12076,-0.165704 -0.0747,0.100351 0.006,-0.349062 -0.0807,0.05327 -0.0518,-0.147739 -0.17827,-0.231056 -0.29933,-0.130085 -0.24723,0.05916 -0.11503,0.0415 0.25897,-0.183358 -0.31077,-0.05327 -0.33938,-0.201323 -0.52367,-0.360831 -0.50049,-0.337292 -0.0114,0.289904 -0.19574,0.07093 -0.29933,-0.159819 -0.16682,-0.242516 -0.21863,-0.03562 -0.41978,-0.213092 -0.0864,0.09478 -0.48904,-0.0827 0.0229,0.07093 0.0979,0.04739 -0.0229,0.130085 0.15539,0.148049 -0.13823,0.159819 0.12076,0.04708 0.22435,0.148049 0.10359,0.142164 -0.0747,0.195128 -0.35684,0.09478 0.11533,0.177473 0.14365,0.254285 0.075,0.218977 -0.1325,-0.01765 -0.0518,0.04739 -0.33938,-0.165704 -0.2129,-0.177473 0.31077,0.05916 -0.0693,-0.100662 -0.2126,0.01766 -0.0807,-0.349062 -0.38546,-0.0059 -0.42008,-0.1242 -0.18971,-0.13628 -0.40292,-0.07681 -0.23579,0.01765 -0.11504,-0.242516 -0.19001,0 -0.0458,-0.153934 0.23578,-0.319328 0.36829,-0.153934 0.0229,-0.09478 0.40864,-0.106546 0.15508,-0.201013 -0.0515,-0.03562 0.0747,-0.01766 0.0855,0.06164 -0.005,-0.02633 0.17286,0.0059 0.19543,-0.05916 0.0289,-0.06504 -0.16111,-0.118316 0.0861,-0.09478 -0.29903,-0.05327 0.17827,-0.01177 0.31077,0.05916 -0.0518,-0.100661 0.16683,-0.01766 0.44297,0.207208 -0.24151,0.04739 0.006,0.106546 0.20718,-0.0415 -0.0175,-0.05327 0.17828,-0.04739 0.16713,0.13597 -0.12678,0.12451 0.12678,0.0827 -0.35685,-0.01177 -0.12648,0.01765 0.006,0.112431 0.20115,0.03562 0.2647,-0.01177 0.52368,0.183358 0.24753,0.06504 0.47158,0.07093 -0.4776,-0.212782 0.51795,0.130085 -0.0922,-0.201322 -0.558,-0.206898 0.0229,-0.106546 0.5294,0.230747 0.0114,-0.248711 -0.33366,-0.0827 -0.48332,-0.148049 -0.0632,-0.08858 -0.23006,-0.09478 -0.32794,-0.100661 -0.6905,-0.189243 -0.3969,-0.01177 -0.2129,0.05327 -0.0114,0.141855 -0.0807,-0.06504 0.0403,-0.13628 -0.22434,-0.02942 -0.0922,0.177474 0.0518,0.148049 c 0,0 0.10376,0.05327 0.12678,0.05327 0.023,0 0.25295,-0.0059 0.25295,-0.0059 l 0.0518,0.13597 -0.16683,0.189243 -0.14394,-0.06504 0.006,-0.130086 -0.14967,-0.06504 -0.0922,0.09447 -0.069,-0.08858 -0.24181,-0.165704 0.0403,-0.112431 0.12648,0 0.19574,-0.142164 -0.30505,-0.02942 -0.18399,0.06504 0.006,0.09478 -0.11504,0.0827 0,0.11243 0.23007,0.142165 -0.15539,0.106546 -0.16682,0.09447 0.0807,-0.224861 -0.12075,-0.08858 -0.21291,0.1242 0.0918,0.02942 0.006,0.08301 -0.50049,0.03562 -0.19543,-0.09478 -0.29933,0.01177 -0.14364,0.183358 -0.0693,-0.106236 c 0,0 -0.60991,0.0059 -0.64443,0 -0.0345,-0.0059 0.22464,-0.09478 0.22464,-0.09478 l -0.12466,-0.0892 z m 3.16734,0.363929 0.004,0.01982 0.0256,0.0012 -0.0295,-0.02106 z m 0.004,0.01982 -0.10088,-0.0046 -0.0175,0.165703 -0.12076,0.165704 0.20718,-0.02385 0.069,0.07712 0.20718,-0.165704 0.17255,0.05916 0.0632,0.08889 -0.16683,0.02354 -0.11503,0.05327 0.14394,0.05916 0.14364,-0.112431 -0.0114,-0.08301 c 0,0 0.1209,0.0059 0.14966,0 0.0288,-0.0059 0.0289,-0.04708 0.0289,-0.04708 l -0.24181,-0.07712 -0.40834,-0.165704 -0.003,-0.01301 z m 1.02657,0.492465 -0.16683,-0.01177 -0.0575,-0.0415 -0.12076,0.07093 c 0,0 0.12665,0.05331 0.14966,0.04739 0.023,-0.0059 0.0343,-0.06504 0.0343,-0.06504 l 0.16111,0 z m 3.45131,2.780105 0.007,0.0012 -0.0108,-0.0096 -5.9e-4,0.0037 0.005,0.0046 z m -0.004,-0.0084 0.005,-0.02602 c 0,0 0.20702,0.07691 0.23579,0.05916 0.0288,-0.01775 0.0632,-0.100661 0.0632,-0.100661 l -0.32794,-0.0415 -0.069,-0.06504 -0.0575,0.0415 0.15027,0.132563 z m -4.7212,-0.563083 0.2644,0.03996 0.0834,0.0059 0.13521,0.144952 0.187,0.009 -0.0172,0.07681 0.069,0.07124 -0.0142,0.05327 0.0632,0.02354 -0.0145,0.08889 0.28758,0.03531 0.35383,0.03252 0.14967,0.06504 0.14093,0.115528 0.0632,0.0827 -0.0602,0.08301 -0.16984,-0.08301 -0.12076,-0.103448 -0.0605,0.01765 0.11804,0.07403 -0.0202,0.08579 -0.0518,0.07124 0.0172,0.103449 -0.0202,0.08889 -0.12347,0.04708 0.003,0.100661 0.0259,0.02664 -0.0403,0.03841 -0.0937,-0.01425 -0.001,0.0022 0,0.06845 0.1843,-0.02664 0.2129,-0.133182 0.13491,0.01487 0.072,-0.03562 c 0,0 0.24746,-0.0117 0.23308,-0.02354 -0.0101,-0.0083 -0.024,-0.04079 -0.0316,-0.05978 l -0.003,-0.0053 9e-4,-3.09e-4 c -0.002,-0.0048 -0.004,-0.0087 -0.004,-0.0087 l -0.10359,0.0028 -0.0346,-0.03841 0.10088,-0.0827 0.36528,-0.06226 0.22434,-0.05606 -0.0202,0.07093 0.0289,0.109333 -0.10088,0.05637 -0.29029,-0.02664 -0.16623,0.03531 c 6.7e-4,0.0017 0.001,0.0035 0.002,0.0056 l 0.0373,0.06566 -0.069,0.08858 -0.14093,0.06814 -0.29933,0.115528 -0.10058,0.04708 -0.12647,0.02664 -0.17858,-0.0858 0.072,-0.130395 0,-0.0025 0.001,3.09e-4 0.002,-0.0034 0.10359,-0.109334 -0.0117,-0.07124 -0.0545,-0.168491 -0.0605,-0.02973 -0.0804,0.02075 -0.0491,0.07093 -0.0575,-0.0059 -0.0229,-0.04429 0.0891,-0.07403 0.0232,-0.121413 -0.0289,-0.109333 -0.14665,-0.04429 -0.0949,-0.05637 -0.0434,-0.01177 -0.072,0.05018 0.009,0.03871 -0.0575,0.04429 -0.0229,0.08858 -0.006,-0.08579 -0.11804,0.06226 -0.0461,0.156722 -0.0145,0.127297 0.10359,0.177474 -0.0777,0.139067 -0.0979,0.100661 -0.11503,0.0031 -0.0659,-0.08889 -0.006,-0.168492 -0.0316,-0.142164 0.0864,-0.218977 0.10359,-0.18057 -0.072,0.05637 -0.10931,0.08858 -0.0431,0.02664 0.0373,-0.0827 0.0662,-0.02075 0.0632,-0.150836 0.12376,-0.0059 0.12648,-0.05637 0.12377,-0.0028 0.12346,0.04429 0.0118,-0.02354 0.11774,-0.02075 -0.0717,-0.04739 -0.0578,-0.02664 -0.0918,-0.01765 -0.003,-0.05637 -0.32793,0.06504 -0.1322,-0.01177 -0.0891,-0.06814 -0.12377,0.01208 0.0286,-0.05947 0.072,-0.04429 0.0575,-0.01765 -0.0229,-0.02385 -0.10931,0.01208 -0.18429,0.112431 -0.13792,0.04119 -0.1325,0.02075 -0.0488,-0.0059 0.0232,-0.07681 -0.20447,0.06504 -0.0693,-0.01177 0.3192,-0.194818 0.21983,-0.0542 0.0548,-0.09849 0.15448,-0.03562 0.0145,-0.05637 z"
     id="path3034"
     inkscape:connector-curvature="0" />
  <path
     style="fill:#ffffff;fill-opacity:1;fill-rule:evenodd;stroke:none"
     d="m 133.61329,59.306969 0.68466,-0.0059 0.65589,-0.05918 0.20137,-0.08285 0.11507,-0.242622 0.19562,-0.01183 0.1611,-0.289961 0.65589,-0.19528 0.87452,-0.278126 -0.0403,0.106516 -0.68465,0.177527 -0.70768,0.349138 -0.0115,0.165692 0.0518,0.06509 -0.28192,0.213032 -0.35671,0.153857 -0.51206,0.124269 -0.31068,0.04734 -0.32795,-0.05326 -0.0633,0.05326 z"
     id="path3063"
     inkscape:connector-curvature="0" />
</svg>
